<svg version="1.2" xmlns="http://www.w3.org/2000/svg" viewBox="0 0 30000 30000" width="100" height="100">
	<title>New Project</title>
	<style>
		.s0 { fill: #000000 } 
	</style>
	<g id="Layer 1">
	</g>
	<path id="Layer" fill-rule="evenodd" class="s0" d="m28799.1 20185.4c-2631.2 732.2-5409.7 752.3-8051.3 58.2-2641.5-694.1-5051.3-2077.4-6982.7-4008.4-1931.5-1931.1-3315.3-4340.6-4009.9-6982-694.6-2641.3-675.1-5419.8 56.6-8051.2 34.4-122 32.6-251.3-5.1-372.4-37.6-121-109.6-228.4-207.2-309.3-97.6-80.9-216.5-131.7-342.4-146.3-125.9-14.6-253.3 7.6-366.8 64-4431.9 2214.3-7528.8 6424.5-8322.8 11314.7-794.1 4890.2 811.6 9863.9 4315.1 13366.8 3503.6 3502.8 8477.6 5107.4 13367.7 4312.4 4890-795.1 9099.5-3892.9 11312.9-8325.2 56.4-113.5 78.7-240.9 64-366.8-14.6-125.9-65.5-244.8-146.4-342.4-80.9-97.5-188.4-169.5-309.4-207.2-121-37.6-250.3-39.3-372.3-4.9z"/>
</svg>