<svg version="1.2" xmlns="http://www.w3.org/2000/svg" viewBox="0 0 30000 30000" width="100" height="100">
	<title>New Project</title>
	<style>
		.s0 { fill: #fafafa } 
	</style>
	<g id="Layer 1">
	</g>
	<path id="Layer" fill-rule="evenodd" class="s0" d="m15000.2 22425.9c-4106.3 0-7425.6-3319.3-7425.6-7425.7 0-4106.3 3319.3-7425.6 7425.6-7425.6 4106.4 0 7425.7 3319.3 7425.7 7425.6 0 4106.4-3319.3 7425.7-7425.7 7425.7z"/>
	<path id="Layer" fill-rule="evenodd" class="s0" d="m2786.5 13458.3h-811.6c-852.1 0-1541.9 689.8-1541.9 1542 0 852.1 689.8 1541.9 1541.9 1541.9h811.6c852.1 0 1541.9-689.8 1541.9-1541.9 0-852.2-689.8-1542-1541.9-1542z"/>
	<path id="Layer" fill-rule="evenodd" class="s0" d="m28025.6 13458.3h-811.6c-852.1 0-1541.9 689.8-1541.9 1542 0 852.1 689.8 1541.9 1541.9 1541.9h811.6c852.1 0 1541.9-689.8 1541.9-1541.9 0-852.2-689.8-1542-1541.9-1542z"/>
	<path id="Layer" fill-rule="evenodd" class="s0" d="m15000.3 25672.1c-852.2 0-1542 689.8-1542 1541.9v811.6c0 852.1 689.8 1541.9 1542 1541.9 852.1 0 1541.9-689.8 1541.9-1541.9v-811.6c0-852.1-689.8-1541.9-1541.9-1541.9z"/>
	<path id="Layer" fill-rule="evenodd" class="s0" d="m15000.3 4328.4c852.1 0 1541.9-689.8 1541.9-1541.9v-811.6c0-852.1-689.8-1541.9-1541.9-1541.9-852.2 0-1542 689.8-1542 1541.9v811.6c0 852.1 689.8 1541.9 1542 1541.9z"/>
	<path id="Layer" fill-rule="evenodd" class="s0" d="m5261.7 22547.6l-568.1 568.1c-608.6 608.7-608.6 1582.5 0 2150.6 608.7 568.1 1582.5 608.7 2150.6 0l568.1-568.1c608.7-608.6 608.7-1582.5 0-2150.6-568.1-608.6-1541.9-608.6-2150.6 0z"/>
	<path id="Layer" fill-rule="evenodd" class="s0" d="m24738.8 7452.9l568.1-568.1c608.6-608.7 608.6-1582.5 0-2150.6-608.7-608.7-1582.5-608.7-2150.6 0l-608.7 527.5c-608.6 608.7-608.6 1582.5 0 2150.6 608.7 649.2 1582.5 649.2 2191.2 40.6z"/>
	<path id="Layer" fill-rule="evenodd" class="s0" d="m24738.8 22547.6c-608.7-608.6-1582.5-608.6-2150.6 0-608.7 608.7-608.7 1582.5 0 2150.6l568.1 568.1c608.6 608.7 1582.5 608.7 2150.6 0 608.6-608.7 608.6-1582.5 0-2150.6z"/>
	<path id="Layer" fill-rule="evenodd" class="s0" d="m5261.7 7452.9c608.7 608.6 1582.5 608.6 2150.6 0 608.7-608.7 608.7-1582.5 0-2150.6l-527.5-608.7c-608.7-608.6-1582.5-608.6-2150.6 0-568.1 608.7-608.7 1582.5 0 2150.6z"/>
</svg>